<svg width="31" height="39" viewBox="0 0 31 39" fill="none" xmlns="http://www.w3.org/2000/svg">
<path d="M21.0714 6.50042C22.4062 4.87542 23.2768 2.61203 23.0446 0.348633C21.1295 0.406669 18.8661 1.62542 17.4732 3.25042C16.2545 4.70131 15.2098 7.02274 15.442 9.2281C17.5893 9.4022 19.7366 8.12542 21.0714 6.50042Z" fill="white"/>
<path d="M25.8303 20.8357C25.8303 19.2687 26.1785 17.992 26.7589 16.9473C27.9196 14.6839 29.8348 13.5812 29.9509 13.4652C27.7455 10.1571 24.2634 9.69285 23.0446 9.63482C20.0848 9.34464 17.2991 11.3759 15.7902 11.3759C14.2812 11.3759 11.9598 9.63482 9.52229 9.69285C6.33033 9.75089 3.37051 11.608 1.68747 14.5098C1.16515 15.4384 0.816937 16.367 0.526759 17.4116C-0.866099 23.0411 1.33926 29.9473 4.06694 34.0098C5.6339 36.3312 7.54908 39.0009 10.0446 38.8848C12.4241 38.7688 13.3526 37.3179 16.2544 37.3179C19.1562 37.3179 19.9687 38.8848 22.5223 38.8268C25.0759 38.7688 26.7589 36.4473 28.3259 34.0679C30.125 31.3402 30.8794 28.7286 30.9375 28.6125C30.8794 28.5545 25.8884 26.6393 25.8303 20.8357Z" fill="white"/>
</svg>
