<svg width="22" height="22" viewBox="0 0 22 22" fill="none" xmlns="http://www.w3.org/2000/svg">
<path fill-rule="evenodd" clip-rule="evenodd" d="M5.5 0.6875C5.5 0.505164 5.42757 0.330295 5.29864 0.201364C5.1697 0.0724328 4.99484 0 4.8125 0C4.63016 0 4.4553 0.0724328 4.32636 0.201364C4.19743 0.330295 4.125 0.505164 4.125 0.6875V1.375H2.75C2.02065 1.375 1.32118 1.66473 0.805456 2.18046C0.289731 2.69618 0 3.39565 0 4.125L0 5.5H22V4.125C22 3.39565 21.7103 2.69618 21.1945 2.18046C20.6788 1.66473 19.9793 1.375 19.25 1.375H17.875V0.6875C17.875 0.505164 17.8026 0.330295 17.6736 0.201364C17.5447 0.0724328 17.3698 0 17.1875 0C17.0052 0 16.8303 0.0724328 16.7014 0.201364C16.5724 0.330295 16.5 0.505164 16.5 0.6875V1.375H5.5V0.6875ZM0 6.875H22V9.625H13.75C13.3853 9.625 13.0356 9.76987 12.7777 10.0277C12.5199 10.2856 12.375 10.6353 12.375 11C12.375 11.3647 12.5199 11.7144 12.7777 11.9723C13.0356 12.2301 13.3853 12.375 13.75 12.375H22V19.25C22 19.9793 21.7103 20.6788 21.1945 21.1945C20.6788 21.7103 19.9793 22 19.25 22H2.75C2.02065 22 1.32118 21.7103 0.805456 21.1945C0.289731 20.6788 0 19.9793 0 19.25V16.5H6.875C7.23967 16.5 7.58941 16.3551 7.84727 16.0973C8.10513 15.8394 8.25 15.4897 8.25 15.125C8.25 14.7603 8.10513 14.4106 7.84727 14.1527C7.58941 13.8949 7.23967 13.75 6.875 13.75H0V6.875Z" fill="#A23CC9"/>
</svg>
