<svg width="19" height="20" viewBox="0 0 19 20" fill="none" xmlns="http://www.w3.org/2000/svg">
<path d="M17.9166 0C9.44573 0 2.47824 6.51668 1.73992 14.7983C3.14742 12.8133 4.8716 10.9033 7.0241 8.7075C7.1841 8.5425 7.4491 8.53918 7.61328 8.70168C7.77745 8.8625 7.77995 9.12668 7.6191 9.29086C7.29492 9.62086 6.96578 9.96336 6.63492 10.31C6.44574 10.5075 6.26074 10.7042 6.0791 10.8975C6.04578 10.9334 6.01242 10.9692 5.9791 11.0059C3.3191 13.8542 1.41742 16.3333 0.0365565 19.4125C-0.0576231 19.6225 0.0365565 19.8692 0.245736 19.9633C0.301557 19.9883 0.359056 20 0.416556 20C0.575736 20 0.728236 19.9083 0.797377 19.7542C1.28906 18.6584 1.85988 17.6417 2.50156 16.6525C8.32156 16.5033 13.6191 13.2658 16.3957 8.11418C16.4649 7.985 16.4616 7.82918 16.3866 7.7025C16.3107 7.5775 16.1749 7.5 16.0282 7.5H14.4849L17.2524 5.91832C17.3399 5.86832 17.4074 5.7875 17.4399 5.6925C18.0332 3.9675 18.3332 2.1925 18.3332 0.41668C18.3332 0.18668 18.1466 0 17.9166 0Z" fill="#BDBDBD"/>
</svg>
