<svg width="35" height="22" viewBox="0 0 35 22" fill="none" xmlns="http://www.w3.org/2000/svg">
<path d="M31.3125 8.92032C31.0804 8.92032 30.8482 8.92032 30.6161 8.92032C30.6161 8.86229 30.6161 8.80425 30.6161 8.80425C30.6161 8.63015 30.6161 8.45604 30.6161 8.33997C30.6161 7.46943 30.6161 6.54086 30.6161 5.67033C30.6161 5.55425 30.442 5.26407 30.3839 5.26407C29.5714 5.20604 28.7589 5.26407 27.8884 5.26407C27.8884 6.30872 27.8884 7.35336 27.8884 8.398C27.8884 8.63015 27.8884 8.80425 27.8884 9.0364C26.6116 9.0364 25.4509 9.0364 24.1161 9.0364C24.1161 9.32658 24.1161 9.50068 24.1161 9.67479C24.1161 10.3712 24.1741 11.0096 24.2322 11.706C24.8706 11.706 25.567 11.7641 26.2054 11.7641C26.7857 11.7641 27.3081 11.7641 27.9464 11.7641C27.9464 13.0409 27.9464 14.2596 27.9464 15.4203C28.875 15.4203 29.7455 15.4203 30.6741 15.4203C30.6741 14.2016 30.6741 12.9828 30.6741 11.706C31.9509 11.706 33.1697 11.706 34.3884 11.706C34.3884 11.0096 34.3884 10.3132 34.3884 9.61675C34.3884 9.38461 34.3884 9.15247 34.3884 8.92032C33.3438 8.92032 32.3572 8.92032 31.3125 8.92032Z" fill="white"/>
<path d="M20.75 8.57167C18.4286 8.6297 16.1072 8.57167 13.7277 8.57167C13.0893 8.57167 12.3929 8.57167 11.7545 8.57167C11.6384 8.57167 11.4063 8.74577 11.4063 8.80381C11.4063 10.1386 11.4063 11.4735 11.4063 12.9243C13.3214 12.9243 15.1786 12.9243 17.0938 12.9243C17.0357 13.2145 16.9777 13.3886 16.9197 13.6208C16.0491 16.2324 13.3795 17.5092 10.4777 17.0449C6.87948 16.4645 4.67413 13.1565 5.31252 9.55827C5.42859 9.03595 5.54466 8.57166 5.7768 8.10738C6.93752 5.49577 9.89734 3.92881 12.7411 4.5672C13.7857 4.79934 14.6563 5.32167 15.4107 5.96006C16.4554 4.91542 17.442 3.87077 18.5447 2.82613C18.4866 2.7681 18.3706 2.71006 18.2545 2.65202C15.7589 0.504703 12.8572 -0.249762 9.60716 0.272559C4.96431 1.02702 1.59823 4.68327 0.843768 8.97791C0.495554 10.8351 0.669661 12.7502 1.42413 14.6654C3.22323 19.1922 7.80806 21.9779 12.6831 21.4556C15.0625 21.1654 17.2098 20.3529 18.8929 18.5538C21.3304 15.9422 21.9688 12.7502 21.6206 9.32613C21.5045 8.68774 21.2723 8.57167 20.75 8.57167Z" fill="white"/>
</svg>
