<svg width="17" height="37" viewBox="0 0 17 37" fill="none" xmlns="http://www.w3.org/2000/svg">
<path d="M17 31.9545V35.3182C17 35.7737 16.8318 36.1679 16.4953 36.5007C16.1589 36.8336 15.7604 37 15.3 37H1.7C1.23958 37 0.841146 36.8336 0.504687 36.5007C0.168229 36.1679 0 35.7737 0 35.3182V31.9545C0 31.4991 0.168229 31.1049 0.504687 30.772C0.841146 30.4392 1.23958 30.2727 1.7 30.2727H3.4V20.1818H1.7C1.23958 20.1818 0.841146 20.0154 0.504687 19.6825C0.168229 19.3497 0 18.9555 0 18.5V15.1364C0 14.6809 0.168229 14.2867 0.504687 13.9538C0.841146 13.621 1.23958 13.4545 1.7 13.4545H11.9C12.3604 13.4545 12.7589 13.621 13.0953 13.9538C13.4318 14.2867 13.6 14.6809 13.6 15.1364V30.2727H15.3C15.7604 30.2727 16.1589 30.4392 16.4953 30.772C16.8318 31.1049 17 31.4991 17 31.9545ZM13.6 1.68182V6.72727C13.6 7.18277 13.4318 7.57694 13.0953 7.9098C12.7589 8.24266 12.3604 8.40909 11.9 8.40909H5.1C4.63958 8.40909 4.24115 8.24266 3.90469 7.9098C3.56823 7.57694 3.4 7.18277 3.4 6.72727V1.68182C3.4 1.22633 3.56823 0.83215 3.90469 0.49929C4.24115 0.16643 4.63958 0 5.1 0H11.9C12.3604 0 12.7589 0.16643 13.0953 0.49929C13.4318 0.83215 13.6 1.22633 13.6 1.68182Z" fill="#2F80ED"/>
</svg>
