<svg width="22" height="22" viewBox="0 0 22 22" fill="none" xmlns="http://www.w3.org/2000/svg">
<path d="M18.9479 12.1608C18.9479 11.8291 19.0585 11.4975 19.0585 11.0553C19.0585 10.613 19.0585 10.2814 18.9479 9.94973L21.2695 8.07034C21.4906 7.84923 21.4906 7.62813 21.3801 7.40702L19.169 3.53768C19.0585 3.42713 18.8374 3.31658 18.5057 3.42713L15.7419 4.53265C15.1891 4.09044 14.5258 3.75879 13.8625 3.42713L13.4203 0.552763C13.5308 0.221105 13.1991 0 12.9781 0H8.55596C8.33481 0 8.0032 0.221105 8.0032 0.44221L7.56099 3.42713C6.89767 3.64823 6.34491 4.09044 5.68159 4.53265L3.02833 3.42713C2.69668 3.31658 2.47557 3.42713 2.25442 3.64823L0.0433703 7.51757C-0.0671823 7.62813 0.0433703 7.95978 0.264475 8.18089L2.58608 9.94973C2.58608 10.2814 2.47553 10.613 2.47553 11.0553C2.47553 11.4975 2.47553 11.8291 2.58608 12.1608L0.264475 14.0402C0.0433703 14.2613 0.0433703 14.4824 0.153923 14.7035L2.36497 18.5729C2.47553 18.6834 2.69659 18.794 3.02829 18.6834L5.7921 17.5779C6.34487 18.0201 7.00818 18.3518 7.6715 18.6834L8.11371 21.5578C8.11371 21.7789 8.33481 22 8.66647 22H13.0886C13.3097 22 13.6413 21.7789 13.6413 21.5578L14.0835 18.6834C14.7469 18.3518 15.4102 18.0201 15.9629 17.5779L18.7268 18.6834C18.9479 18.794 19.2795 18.6834 19.3901 18.4623L21.6012 14.5929C21.7117 14.3718 21.7117 14.0402 21.4906 13.9296L18.9479 12.1608ZM10.767 14.9246C8.66651 14.9246 6.89767 13.1558 6.89767 11.0553C6.89767 8.95476 8.66651 7.18592 10.767 7.18592C12.8675 7.18592 14.6364 8.95476 14.6364 11.0553C14.6364 13.1558 12.8675 14.9246 10.767 14.9246Z" fill="#A23CC9"/>
</svg>
